<?xml version="1.0" encoding="UTF-8" standalone="no"?>
<!-- Created with Inkscape (http://www.inkscape.org/) -->

<svg
   width="49.5mm"
   height="48.299999mm"
   viewBox="0 0 49.5 48.299999"
   xmlns="http://www.w3.org/2000/svg">
  <g><path style="fill:#a8a8a8"
       d="m 6.6075759,19.043 c 4.8297041,0.01323 6.0854161,3.142721 
       6.0854161,7.408333 h 23.812499 c 0,-4.298156 1.638565,-7.395369 
       6.35,-7.408333 V 6.8721672 c 0,-1.738577 0.30136,-3.8290499 
       -0.90461,-5.2630915 -1.737519,-2.06613121 -5.430044,-1.35149161 
       -7.82664,-1.35149161 H 14.809659 c -2.342621,0 -5.5956728,-0.6066896 
       -7.3345144,1.35149161 C 6.2419217,2.997609 6.6075759,5.1563444 
       6.6075759,6.8721672 V 19.043 M 10.311742,47.882582 V 36.240916 
       27.245083 c 0,-1.307835 0.274638,-3.021013 -0.3487207,-4.221692 
       -1.0294934,-1.982787 -7.6440769,-2.112168 -9.04028294,-0.480483 
       -1.136121,1.327679 -0.665162,3.876675 -0.665162,5.495925 v 13.493749 
       c 0,1.687513 -0.512234,4.391025 0.89799504,5.648061 1.839648,1.639358 
       6.8241336,0.701939 9.1561706,0.701939 m 28.839582,0 c 2.353469,0 
       7.429765,0.957527 9.186598,-0.854075 1.308365,-1.34911 0.867569,-3.781689
        0.867569,-5.495925 V 28.038833 c 0,-1.671902 0.417777,-4.09575 
        -0.715169,-5.495925 -1.352021,-1.670579 -8.011318,-1.469496 -9.027054,0.473869
         -0.614891,1.176337 -0.311944,2.941902 -0.311944,4.228306 v 
         8.995833 11.641666 M 11.634659,29.097166 V 47.882582 H 37.828408 
         V 29.097166 Z"/></g></svg>
